# xmcd CD database file
#
# Track frame offsets:
#	150
#	16083
#	26924
#	39227
#	51335
#	64684
#	81024
#	91486
#	108061
#	121422
#	136910
#	147085
#
# Disc length: 2114 seconds
#
# Revision: 0
# Processed by: cddbd v1.5.2PL0 Copyright (c) Steve Scherf et al.
# Submitted via: CDex 1.51
#
DISCID=9508400c
DTITLE=Pat McKenna - The Wind On The Hill
DYEAR=2013
DGENRE=Country
TTITLE0=The Wheels Go Round
TTITLE1=Second Fiddle
TTITLE2=Beneath An Algarve Moon
TTITLE3=My Home In Ireland
TTITLE4=Rose of My Heart
TTITLE5=The Wind On The Hill
TTITLE6=I Still Have A Crush On You
TTITLE7=Sing The Tennessee Waltz One More Time
TTITLE8=I Can't Imagine Me Without You
TTITLE9=You Waltzed So Softly Through My Mind
TTITLE10=Geisha Girl
TTITLE11=Thanks To You
EXTD=YEAR: 2013
EXTT0=
EXTT1=
EXTT2=
EXTT3=
EXTT4=
EXTT5=
EXTT6=
EXTT7=
EXTT8=
EXTT9=
EXTT10=
EXTT11=
PLAYORDER=
